<?xml version="1.0" encoding="UTF-8" standalone="no"?>
<!-- Created with Inkscape (http://www.inkscape.org/) -->

<svg
   xmlns:dc="http://purl.org/dc/elements/1.1/"
   xmlns:cc="http://creativecommons.org/ns#"
   xmlns:rdf="http://www.w3.org/1999/02/22-rdf-syntax-ns#"
   xmlns:svg="http://www.w3.org/2000/svg"
   xmlns="http://www.w3.org/2000/svg"
   xmlns:sodipodi="http://sodipodi.sourceforge.net/DTD/sodipodi-0.dtd"
   xmlns:inkscape="http://www.inkscape.org/namespaces/inkscape"
   id="svg3038"
   version="1.1"
   inkscape:version="0.48.4 r9939"
   width="1920"
   height="1080"
   sodipodi:docname="logo_happy_potato.svg">
  <metadata
     id="metadata3044">
    <rdf:RDF>
      <cc:Work
         rdf:about="">
        <dc:format>image/svg+xml</dc:format>
        <dc:type
           rdf:resource="http://purl.org/dc/dcmitype/StillImage" />
        <dc:title></dc:title>
      </cc:Work>
    </rdf:RDF>
  </metadata>
  <defs
     id="defs3042">
    <inkscape:path-effect
       effect="skeletal"
       id="path-effect3952"
       is_visible="true"
       pattern="m -18.5,34 c 0,-2.76 2.24,-5 5,-5 2.76,0 5,2.24 5,5 0,2.76 -2.24,5 -5,5 -2.76,0 -5,-2.24 -5,-5 z"
       copytype="single_stretched"
       prop_scale="1"
       scale_y_rel="false"
       spacing="0"
       normal_offset="0"
       tang_offset="0"
       prop_units="false"
       vertical_pattern="false"
       fuse_tolerance="0" />
    <inkscape:path-effect
       effect="skeletal"
       id="path-effect3948"
       is_visible="true"
       pattern="m -7,-14.5 c 0,-2.76 2.24,-5 5,-5 2.76,0 5,2.24 5,5 0,2.76 -2.24,5 -5,5 -2.76,0 -5,-2.24 -5,-5 z"
       copytype="single_stretched"
       prop_scale="1"
       scale_y_rel="false"
       spacing="0"
       normal_offset="0"
       tang_offset="0"
       prop_units="false"
       vertical_pattern="false"
       fuse_tolerance="0" />
    <inkscape:path-effect
       effect="skeletal"
       id="path-effect3909"
       is_visible="true"
       pattern="m -2.4748737,14.899495 c 0,-2.76 2.23999996,-5.0000001 5,-5.0000001 2.76,0 5,2.2400001 5,5.0000001 0,2.76 -2.24,5 -5,5 -2.76000004,0 -5,-2.24 -5,-5 z"
       copytype="single_stretched"
       prop_scale="1"
       scale_y_rel="false"
       spacing="0"
       normal_offset="0"
       tang_offset="0"
       prop_units="false"
       vertical_pattern="false"
       fuse_tolerance="0" />
    <inkscape:path-effect
       effect="skeletal"
       id="path-effect3886"
       is_visible="true"
       pattern="M 0,5 C 0,2.24 2.24,0 5,0 7.76,0 10,2.24 10,5 10,7.76 7.76,10 5,10 2.24,10 0,7.76 0,5 z"
       copytype="single_stretched"
       prop_scale="1"
       scale_y_rel="false"
       spacing="0"
       normal_offset="0"
       tang_offset="0"
       prop_units="false"
       vertical_pattern="false"
       fuse_tolerance="0" />
    <inkscape:path-effect
       effect="skeletal"
       id="path-effect3882"
       is_visible="true"
       pattern="M 0,5 C 0,2.24 2.24,0 5,0 7.76,0 10,2.24 10,5 10,7.76 7.76,10 5,10 2.24,10 0,7.76 0,5 z"
       copytype="single_stretched"
       prop_scale="1"
       scale_y_rel="false"
       spacing="0"
       normal_offset="0"
       tang_offset="0"
       prop_units="false"
       vertical_pattern="false"
       fuse_tolerance="0" />
    <inkscape:path-effect
       effect="skeletal"
       id="path-effect3846"
       is_visible="true"
       pattern="M 0,5 C 0,2.24 2.24,0 5,0 7.76,0 10,2.24 10,5 10,7.76 7.76,10 5,10 2.24,10 0,7.76 0,5 z"
       copytype="single_stretched"
       prop_scale="1"
       scale_y_rel="false"
       spacing="0"
       normal_offset="0"
       tang_offset="0"
       prop_units="false"
       vertical_pattern="false"
       fuse_tolerance="0" />
    <inkscape:path-effect
       effect="skeletal"
       id="path-effect3909-8"
       is_visible="true"
       pattern="m 29.957759,-0.55738751 c 0,-2.75999999 2.24,-4.99999999 5,-4.99999999 2.76,0 5,2.24 5,4.99999999 0,2.76000011 -2.24,5.00000011 -5,5.00000011 -2.76,0 -5,-2.24 -5,-5.00000011 z"
       copytype="single_stretched"
       prop_scale="1"
       scale_y_rel="false"
       spacing="0"
       normal_offset="0"
       tang_offset="0"
       prop_units="false"
       vertical_pattern="false"
       fuse_tolerance="0" />
    <inkscape:path-effect
       effect="skeletal"
       id="path-effect3952-6"
       is_visible="true"
       pattern="m 22.009089,34.531762 c 0,-2.76 2.24,-5 5,-5 2.76,0 5,2.24 5,5 0,2.76 -2.24,5 -5,5 -2.76,0 -5,-2.24 -5,-5 z"
       copytype="single_stretched"
       prop_scale="1"
       scale_y_rel="false"
       spacing="0"
       normal_offset="0"
       tang_offset="0"
       prop_units="false"
       vertical_pattern="false"
       fuse_tolerance="0" />
  </defs>
  <sodipodi:namedview
     pagecolor="#ffffff"
     bordercolor="#666666"
     borderopacity="1"
     objecttolerance="10"
     gridtolerance="10"
     guidetolerance="10"
     inkscape:pageopacity="0"
     inkscape:pageshadow="2"
     inkscape:window-width="1920"
     inkscape:window-height="1031"
     id="namedview3040"
     showgrid="false"
     inkscape:zoom="0.5"
     inkscape:cx="551.22302"
     inkscape:cy="208.29256"
     inkscape:window-x="0"
     inkscape:window-y="25"
     inkscape:window-maximized="1"
     inkscape:current-layer="svg3038" />
  <path
     style="fill:#000000"
     id="path3868"
     d="m 818.00253,706.76642 c 0.86907,0.72021 1.82137,1.32651 2.74676,1.96974 0.94325,0.60584 1.82427,1.30178 2.803,1.85108 0.73692,0.5037 1.44569,0.99706 2.25633,1.37475 1.01436,0.4987 2.0374,0.97132 3.03389,1.50788 1.06001,0.52271 2.20564,0.8029 3.32046,1.17488 1.30844,0.31249 2.60254,0.6694 3.88586,1.07331 1.05906,0.27782 2.05635,0.71814 3.14774,0.86294 0.91588,0.0835 1.83615,0.0838 2.75494,0.0836 2.81255,-0.003 1.08878,-0.001 -6.58094,-0.001 -0.19151,-10e-6 0.38301,6.3e-4 0.57452,5.4e-4 0.59921,-2.7e-4 1.19843,-0.002 1.79764,-0.003 0.99307,0.007 1.98127,0.0223 2.96637,-0.11268 0.50137,0.026 1.61551,-0.538 2.01781,-0.35594 -0.001,0.0194 0.017,0.34805 -0.10749,0.3639 -0.17188,0.0219 -0.81662,-0.50526 -0.95768,-0.60283 -0.80788,-0.48029 -1.62196,-0.93322 -2.45502,-1.36705 -0.97424,-0.48145 -1.90754,-0.98987 -2.74721,-1.68885 -0.80148,-0.46293 -1.45557,-1.12199 -2.20349,-1.66023 -0.70598,-0.62213 -1.50386,-1.13762 -2.22054,-1.74314 -0.62315,-0.57889 -1.20922,-1.19631 -1.80448,-1.80351 -0.72875,-0.68207 -1.36848,-1.44999 -2.06963,-2.15637 -0.71737,-0.66353 -1.36306,-1.39248 -2.06481,-2.07086 -0.75188,-0.89588 -1.50262,-1.78136 -2.31798,-2.62122 -0.81094,-0.73494 -1.40509,-1.6378 -1.97593,-2.55931 -0.5484,-0.9125 -1.06564,-1.84271 -1.55278,-2.78943 -0.48069,-0.85619 -0.89465,-1.75536 -1.22995,-2.6779 -0.44893,-0.92799 -0.79622,-1.89294 -1.1079,-2.87511 -0.26378,-1.06916 -0.55802,-2.13017 -0.8668,-3.18737 -0.35464,-0.99126 -0.59891,-2.01052 -0.88337,-3.02204 -0.23314,-0.94451 -0.4211,-1.90501 -0.5775,-2.86592 -0.14901,-1.07269 -0.19156,-2.15571 -0.22566,-3.23695 -0.0537,-0.79464 0.0458,-1.60446 0.77315,-2.04629 0.10078,-0.0224 0.1991,-0.0666 0.30234,-0.0673 2.64283,-0.0167 5.28578,5.1e-4 7.92862,0.0151 2.29605,0.0127 -4.59223,0.0225 -6.88827,0.008 -0.13622,-8.9e-4 0.27233,-0.0105 0.40811,-0.0215 0.15243,-0.0123 0.30416,-0.0323 0.45623,-0.0485 1.43831,-0.19382 2.81495,-0.64571 4.18086,-1.11784 1.70167,-0.62606 3.20566,-1.63093 4.66403,-2.6866 1.406,-0.98417 2.76552,-2.02488 4.07523,-3.13297 1.00714,-0.82011 1.91193,-1.74144 2.76178,-2.72042 1.01458,-1.11218 1.91615,-2.31021 2.74503,-3.56506 0.89456,-1.36627 1.6098,-2.83108 2.26758,-4.322 0.66788,-1.43813 1.21529,-2.92918 1.64583,-4.45447 0.46713,-1.51352 0.8201,-3.05488 1.14824,-4.60332 0.23478,-1.05769 0.33365,-2.13533 0.37544,-3.21566 0.0203,-0.74478 0.0133,-1.48993 0.01,-2.23488 0,0 7.69237,-0.002 7.69237,-0.002 l 0,0 c 0.001,0.75823 0.005,1.51689 -0.0309,2.27452 -0.0651,1.1239 -0.1861,2.24711 -0.44881,3.34397 -0.35844,1.55481 -0.69314,3.1151 -1.15939,4.64258 -0.4245,1.56597 -0.97439,3.09706 -1.6774,4.5606 -0.65864,1.52797 -1.33526,3.04775 -2.2451,4.44788 -0.82057,1.2861 -1.70396,2.53227 -2.73108,3.66317 -0.85121,1.02746 -1.73906,2.01128 -2.77458,2.8597 -1.36764,1.07298 -2.69249,2.19705 -4.13873,3.16875 -1.48354,1.08477 -2.96284,2.18125 -4.66761,2.90465 -1.34064,0.49035 -2.68471,1.02067 -4.10013,1.25054 -2.78763,0.73587 -6.74542,0.18763 -8.84852,0.18888 -3.30834,0.002 9.85571,0.42016 6.68993,-0.0693 -0.14737,-0.0431 -0.28998,-0.14833 -0.44228,-0.12879 -0.41284,0.053 -0.29612,0.86477 -0.30941,1.09164 0.0151,1.04418 0.0467,2.09155 0.2152,3.12432 0.17008,0.9365 0.35245,1.87285 0.58521,2.79562 0.25821,1.01016 0.53643,2.01027 0.8563,3.00328 0.31404,1.05077 0.60083,2.10893 0.88279,3.1687 0.31542,0.96757 0.69832,1.90345 1.11269,2.83227 0.36053,0.88547 0.75676,1.756 1.22145,2.59234 0.48616,0.92734 0.99416,1.84337 1.55374,2.72879 0.55169,0.87708 1.19413,1.68242 1.93935,2.40558 0.79772,0.85091 1.5295,1.75875 2.34307,2.59425 0.69411,0.69226 1.36439,1.40814 2.06279,2.09632 0.6728,0.73392 1.37588,1.43783 2.07987,2.14176 0.58688,0.58916 1.16616,1.19081 1.81587,1.71195 0.74272,0.55667 1.43244,1.17841 2.18579,1.72097 0.73287,0.56491 1.44959,1.14973 2.21435,1.6725 0.85709,0.609 1.78808,1.07059 2.71951,1.55426 0.8578,0.44529 1.69429,0.936 2.50516,1.46156 0.71774,0.504 1.25959,0.73509 1.11263,1.7538 -0.056,0.0737 -0.0892,0.17233 -0.16784,0.22112 -0.37316,0.23157 -1.53244,0.13298 -1.95028,0.45021 -1.01011,0.15422 -2.00357,0.29256 -3.03146,0.21287 -3.63384,0.008 -7.26773,0.0301 -10.90157,0.005 -0.92807,-0.015 -1.86208,-0.0398 -2.77524,-0.22209 -1.04995,-0.26447 -2.05271,-0.67976 -3.10204,-0.94902 -1.29563,-0.37757 -2.60263,-0.70792 -3.89818,-1.08427 -1.14671,-0.35372 -2.28731,-0.73033 -3.34804,-1.30287 -1.01487,-0.51375 -2.04667,-0.99144 -3.06748,-1.49323 -0.78608,-0.42593 -1.48049,-0.98983 -2.25463,-1.43726 -0.93634,-0.61837 -1.84264,-1.28002 -2.78092,-1.89561 -0.93149,-0.63561 -1.83444,-1.31782 -2.79986,-1.89966 0,0 7.65317,-0.80783 7.65317,-0.80783 z"
     inkscape:connector-curvature="0" />
  <path
     style="fill:#000000"
     id="path3870"
     d="m 901.08498,628.19133 c 1.19698,0.61894 2.4442,1.13887 3.67952,1.68185 1.15886,0.49177 2.32373,0.95157 3.57346,1.13725 1.54164,0.12853 3.09275,0.10386 4.63862,0.10848 0.39148,3.5e-4 1.5659,9.8e-4 1.17443,10e-4 -12.49418,0.002 -3.41793,-0.0159 2.43902,0.0519 1.07923,0.0125 2.16691,0.11505 3.24524,0.16833 0.64696,0.0284 1.00885,0.0462 1.64244,0.067 0.22957,0.008 0.91851,0.0195 0.68881,0.0193 -12.20431,-0.0104 -8.23838,0.1509 -5.59003,-0.12685 1.57654,-0.2256 3.1265,-0.60925 4.66638,-1.0096 1.19948,-0.31273 2.3899,-0.65272 3.57403,-1.01889 0.77937,-0.20563 1.4236,-0.66469 2.10552,-1.06719 0.67568,-0.31233 1.31361,-0.70105 1.99102,-1.008 0.61153,-0.26502 1.19019,-0.58968 1.74113,-0.96414 0.32788,-0.27962 1.01858,-0.50957 1.05169,-0.99785 9.44094,0.85882 8.53009,-0.89657 6.7154,2.35493 -0.37554,0.68615 -0.72996,1.38385 -1.07706,2.08476 -0.3524,0.77332 -0.60568,1.58593 -0.96919,2.3535 -0.51511,0.84976 -1.03861,1.6942 -1.55576,2.54272 -0.43345,0.72147 -0.74999,1.50525 -1.05874,2.286 -0.40542,0.9903 -0.64582,2.03437 -0.92637,3.06376 -0.34334,1.34933 -0.70362,2.69503 -0.97485,4.06109 -0.26675,1.3549 -0.60065,2.69571 -0.81808,4.05988 -0.21751,1.02831 -0.3931,2.06368 -0.59388,3.09514 -0.24555,1.25481 -0.24546,2.53637 -0.35686,3.80529 -0.15217,1.40257 -0.41512,2.78751 -0.54688,4.19316 -0.15072,1.13993 -0.0142,2.27691 0.0919,3.41299 0.0311,1.16975 0.30636,2.29156 0.64646,3.40293 0.37922,1.10932 0.94717,2.12801 1.51307,3.1489 0.85455,1.40331 1.9645,2.62801 3.02132,3.87933 0.37162,0.5285 0.77351,1.01844 1.39812,1.24386 0.13588,0.049 0.27771,0.0912 0.42197,0.0988 0.14513,0.008 0.57794,-0.0516 0.43264,-0.054 -2.36447,-0.0391 -4.72944,-0.0374 -7.09416,-0.0561 1.1827,-0.15969 2.24999,-0.73634 3.33667,-1.19624 0.93772,-0.44452 1.88317,-0.85512 2.89589,-1.09026 1.0211,-0.17616 2.06146,-0.17217 3.09433,-0.17954 3.46915,-0.0214 6.93819,-0.002 10.40728,0.007 1.52943,0.2398 3.01622,0.73244 4.47776,1.23292 2.02154,0.59843 4.03892,1.20851 6.05798,1.8146 1.18096,0.37364 2.32698,0.83257 3.34767,1.53915 0.79348,0.59972 1.49335,1.31014 2.19567,2.01126 0.41314,0.35535 0.83962,0.69945 1.21769,1.09198 0,0 -7.66935,0.61413 -7.66935,0.61413 l 0,0 c -0.39941,-0.36122 -0.79149,-0.73052 -1.18329,-1.09996 -0.68269,-0.66527 -1.37004,-1.3382 -2.1806,-1.84892 -1.01882,-0.58683 -2.12492,-0.99674 -3.24504,-1.34737 -1.9913,-0.63606 -3.99764,-1.22283 -5.99756,-1.83094 -1.49313,-0.45152 -3.01551,-0.96424 -4.59018,-0.97983 -2.94266,-0.006 -8.34803,-0.0368 4.71971,-0.009 -1.01998,-0.003 -2.04133,-0.0115 -3.05965,0.0566 -1.02369,0.1072 -1.99261,0.41958 -2.90418,0.90227 -1.10734,0.49352 -2.21266,0.98425 -3.34244,1.42013 -2.6909,0.0202 -5.38189,0.0909 -8.07268,0.0605 -0.83068,-0.009 -1.7787,-1.30893 -2.21747,-1.87509 -1.07286,-1.30003 -2.22188,-2.55378 -3.07399,-4.01696 -0.60178,-1.06365 -1.18087,-2.14159 -1.53906,-3.31662 -0.33698,-1.16316 -0.60908,-2.34079 -0.65933,-3.55678 -0.0978,-1.18394 -0.24386,-2.37164 -0.0629,-3.55654 0.15059,-1.39998 0.39076,-2.78535 0.5521,-4.18304 0.11241,-1.29253 0.0981,-2.59716 0.32235,-3.87938 0.18252,-1.03108 0.3553,-2.06438 0.61091,-3.08057 0.23745,-1.36961 0.57682,-2.71704 0.84503,-4.08074 0.26647,-1.38485 0.63452,-2.74607 0.94285,-4.12181 0.29631,-1.03987 0.48403,-2.11299 0.89932,-3.11658 0.26902,-0.84853 0.64615,-1.66675 1.06749,-2.45117 0.52182,-0.82554 1.01216,-1.6717 1.54886,-2.48575 0.42438,-0.72774 0.60484,-1.56376 0.95236,-2.32912 0.33402,-0.71518 0.7049,-1.41348 1.07221,-2.11171 1.71496,-3.47168 1.76329,-1.80661 8.65167,-0.80172 0.002,-0.0548 0.0326,-0.11678 0.005,-0.16441 -0.0922,-0.16174 -0.95599,0.66524 -1.09188,0.75157 -0.58449,0.34507 -1.10144,0.81733 -1.74647,1.0512 -0.66253,0.34434 -1.34665,0.63833 -2.00566,0.99212 -0.79073,0.33781 -1.29417,0.91894 -2.11778,1.1519 -1.17366,0.51442 -2.47259,0.70304 -3.69391,1.07534 -1.52302,0.4356 -3.06763,0.81508 -4.62397,1.10814 -3.85261,0.72384 -7.83489,0.25953 -11.73631,0.0988 -0.26277,-0.0144 -1.81204,-0.0999 -2.03819,-0.11102 -0.38301,-0.0189 -1.53268,-0.0457 -1.14925,-0.0518 13.89056,-0.22226 1.16027,0.16581 -3.6419,-0.0254 -1.59787,-0.004 -3.21802,0.0552 -4.79595,-0.23607 -1.2202,-0.31166 -2.37829,-0.8042 -3.53133,-1.3056 -1.26563,-0.54901 -2.5208,-1.12134 -3.7892,-1.6638 0,0 7.64798,-0.89574 7.64798,-0.89574 z"
     inkscape:connector-curvature="0" />
  <path
     style="fill:#000000"
     id="path3874"
     d="m 909.09506,547.65322 c 1.33893,-0.2992 2.69823,-0.47599 4.06368,-0.59348 1.22149,-0.0914 3.33077,-0.9005 4.55509,-0.90773 2.14424,-0.008 4.32105,-0.28498 6.10149,-0.13594 1.42376,0.11919 2.43471,0.66994 4.14938,0.67127 1.22509,-0.0782 2.84419,0.50258 4.02698,0.75968 0.96736,0.38357 1.9087,0.82999 2.86016,1.25692 1.11353,0.54423 2.30355,0.90194 3.40234,1.47528 0.98194,0.47892 1.70561,1.12826 2.45471,1.90663 1.07372,1.19732 2.14621,2.3919 3.18219,3.62374 0.95248,1.17102 1.81842,2.40487 2.65551,3.65938 0.53166,0.89366 0.88232,1.87574 1.34294,2.8017 0.32121,0.73456 0.61701,1.48254 1.01521,2.17915 0.0321,0.0377 0.36626,0.78046 0.37739,0.77461 0.0563,-0.0295 0.0916,-0.18938 0.0281,-0.18862 -7.95374,0.0951 -7.1541,2.8101 -7.88012,-0.004 -0.14228,-0.78495 -0.18375,-1.58266 -0.21187,-2.37837 -0.0192,-0.85632 -0.008,-1.71304 -0.007,-2.56951 -10e-4,-0.81681 -0.005,-1.63361 -0.008,-2.45041 -0.005,-0.76357 -0.002,-1.527 0.01,-2.29048 0.0354,-1.20206 -0.0153,-2.40608 0.0633,-3.60613 0.13507,-1.08456 0.15447,-2.18153 0.29786,-3.26421 0.13969,-0.87279 0.22894,-1.74968 0.40716,-2.61562 0.20329,-0.87548 0.1978,-1.77716 0.31174,-2.66366 0.14489,-0.8112 0.38849,-1.60275 0.5946,-2.40098 0.23697,-0.93131 0.55066,-1.84087 0.87596,-2.74445 0.3049,-0.9611 0.72571,-1.87784 1.10166,-2.81202 0.29702,-0.89309 0.68576,-1.74696 1.07575,-2.60149 0.45514,-0.92743 0.97648,-1.82066 1.46474,-2.73159 0.50669,-0.90828 1.13921,-1.73747 1.73378,-2.58879 0.61584,-0.8316 1.15688,-1.71213 1.71987,-2.5791 0.69544,-0.88021 1.32065,-1.81257 2.05808,-2.6587 0.81741,-0.92156 1.73833,-1.74063 2.68402,-2.52677 0.9072,-0.80865 1.9099,-1.48188 2.94221,-2.11609 0.87616,-0.59028 1.785,-1.12834 2.67711,-1.69349 0.5981,-0.37409 1.23977,-0.67057 1.85198,-1.01695 0.33686,-0.18213 0.17174,-0.10609 0.49261,-0.23404 l 7.66972,0.82047 0,0 c -0.31452,0.21979 -0.14709,0.13904 -0.49923,0.24845 -0.6374,0.31228 -1.25022,0.66552 -1.89365,0.97036 -0.92056,0.52123 -1.81659,1.09342 -2.69673,1.67984 -1.0115,0.63353 -2.06682,1.19334 -2.94821,2.01465 -0.9324,0.75407 -1.86047,1.5259 -2.65791,2.42507 -0.77151,0.7751 -1.33142,1.71029 -2.04186,2.53572 -0.58237,0.8558 -1.0782,1.76645 -1.7158,2.58508 -0.55834,0.85447 -1.20564,1.64468 -1.73991,2.51447 -0.48852,0.8878 -0.94637,1.79256 -1.44551,2.67412 -0.37392,0.84943 -0.79243,1.68052 -1.07542,2.56729 -0.36345,0.93491 -0.81894,1.83142 -1.10544,2.79412 -0.3311,0.87453 -0.6205,1.76616 -0.85636,2.67138 -0.20642,0.76792 -0.39707,1.54207 -0.59145,2.31172 -0.14136,0.89631 -0.11897,1.81465 -0.31397,2.70499 -0.16148,0.85376 -0.28633,1.7108 -0.4214,2.56971 -0.14966,1.06551 -0.18968,2.14468 -0.32967,3.21199 -0.0827,1.18313 -0.0275,2.36951 -0.0213,3.55467 0.0117,0.76363 0.0151,1.52721 0.009,2.29093 -0.003,0.81687 -0.009,1.63372 -0.0128,2.45059 2e-4,0.84768 0.003,1.69544 0.0238,2.5429 0.0235,0.73063 0.0447,1.47196 0.2363,2.18166 0.91205,2.65056 0.24377,0.4584 -7.56413,0.95762 -0.0769,0.005 -0.0135,-0.15385 -0.0282,-0.22952 -0.0493,-0.25445 -0.20611,-0.48414 -0.31184,-0.71366 -0.35954,-0.72994 -0.70588,-1.46328 -1.00673,-2.21957 -0.3972,-0.91464 -0.78727,-1.83605 -1.30213,-2.69283 -0.79352,-1.23661 -1.64134,-2.43767 -2.57982,-3.56973 -1.04499,-1.22032 -2.12321,-2.40741 -3.25403,-3.54905 -0.73081,-0.67708 -1.52706,-1.23886 -2.43543,-1.66006 -1.11871,-0.50347 -2.27199,-0.92771 -3.38424,-1.44695 -0.94215,-0.40346 -1.86472,-0.8874 -2.87279,-1.10336 -1.15202,-0.25508 -2.3165,-0.39317 -3.49993,-0.34115 -0.72767,-6e-4 -1.45533,-0.001 -2.18299,-0.001 -0.22768,8e-5 -0.91072,5.9e-4 -0.68304,6.2e-4 8.57555,9e-4 9.11532,10e-4 6.34196,-3.1e-4 -1.22896,2.6e-4 -2.45855,-10e-4 -3.68648,0.0563 -1.33549,0.0792 -2.67331,0.19308 -3.98048,0.49245 l -7.61372,-1.03579 z"
     inkscape:connector-curvature="0"
     sodipodi:nodetypes="cccscccccccccccccccccccccccccccccccccccccccccccccccccccccccccccccccccccccccccc" />
  <path
     style="fill:#000000"
     id="path3878"
     d="m 773.26636,582.03795 c -0.92305,0.66089 -1.807,1.37351 -2.71803,2.05032 -0.84413,0.50698 -1.64793,1.06086 -2.41791,1.67513 -0.5864,0.48962 -1.0483,1.11092 -1.54194,1.6906 -0.49293,0.48268 -0.87709,1.04935 -1.2436,1.6292 -0.49186,0.72141 -0.92486,1.476 -1.30779,2.25993 -0.49561,1.10408 -1.1787,2.10497 -1.76427,3.15987 -0.63493,1.13127 -1.02772,2.373 -1.37849,3.61559 -0.42971,1.50599 -0.70766,3.05292 -0.93333,4.60133 -0.28019,1.47633 -0.45545,2.96564 -0.54811,4.4645 -0.11775,1.44027 -0.0191,2.88349 0.1861,4.31053 0.14307,1.09669 0.40915,2.16185 0.74842,3.21166 0.18346,0.59086 0.32577,1.31038 0.9839,1.50258 0.20812,-0.0173 0.41607,0.0471 0.62381,0.0329 0.13323,-0.009 0.52793,-0.0689 0.39439,-0.0705 -7.5642,-0.0914 -9.37183,0.14353 -6.44438,-0.0479 0.23499,-0.0154 0.4699,-0.0319 0.70485,-0.0479 1.76595,-0.11203 3.53581,-0.13938 5.30471,-0.16269 3.87554,-0.0384 7.75174,-0.0203 11.62726,-0.0206 0.97979,-9.1e-4 1.95958,-0.002 2.93937,-6e-4 1.08104,0.0176 2.15133,0.233 3.21345,0.42465 1.00257,0.25156 1.98736,0.55749 2.87956,1.0861 0.91468,0.42883 1.65393,1.13713 2.39318,1.81024 0.86177,0.66869 1.58815,1.49769 2.3458,2.27952 0.82216,0.85737 1.56594,1.78617 2.36286,2.66767 0.62966,0.74892 1.16763,1.56523 1.61579,2.43391 0.56284,0.99188 1.11245,1.99164 1.65944,2.99274 0.60086,1.09524 1.04533,2.26386 1.50207,3.42514 0.3554,1.00014 0.52896,2.0445 0.61422,3.09831 0.0893,0.41997 0.0429,0.21194 0.13894,0.62415 0,0 -7.6969,0.16056 -7.6969,0.16056 l 0,0 c -0.0896,-0.46594 -0.0492,-0.22361 -0.11867,-0.72742 -0.0667,-0.97743 -0.20948,-1.94989 -0.5628,-2.87012 -0.44349,-1.13105 -0.89972,-2.2598 -1.49109,-3.3234 -0.56725,-0.99963 -1.11964,-2.00762 -1.69951,-2.99993 -0.45605,-0.80069 -0.97965,-1.56244 -1.58478,-2.25873 -0.77486,-0.88515 -1.51322,-1.80435 -2.35013,-2.63299 -0.75754,-0.76976 -1.51452,-1.54202 -2.35495,-2.22296 -0.7373,-0.63353 -1.50315,-1.22133 -2.39692,-1.62103 -0.9002,-0.4001 -1.84618,-0.68768 -2.81725,-0.85815 -1.06377,-0.18049 -2.14037,-0.31756 -3.2216,-0.28966 -0.9707,3.3e-4 -1.94141,-0.002 -2.91211,-0.004 13.45309,-0.002 6.47286,-0.006 3.39031,0.002 -1.75245,0.0133 -3.5058,0.0299 -5.25603,0.12665 -3.1906,0.21187 -5.71127,0.16097 -9.36964,0.1502 -0.18793,-5.5e-4 -0.61091,-0.11631 -0.78843,-0.20294 -0.11394,-0.0556 -0.21326,-0.13718 -0.31989,-0.20577 -0.53357,-0.56093 -0.77676,-1.2791 -0.96672,-2.02013 -0.32568,-1.09277 -0.5708,-2.20328 -0.70182,-3.33762 -0.19696,-1.47864 -0.27033,-2.9724 -0.17808,-4.46275 0.0965,-1.52013 0.2737,-3.03126 0.56967,-4.52668 0.23006,-1.57734 0.5005,-3.15351 0.90848,-4.69559 0.34736,-1.29796 0.7364,-2.59943 1.36429,-3.79304 0.56589,-1.05104 1.2492,-2.0352 1.74622,-3.12239 0.38856,-0.8134 0.77396,-1.62359 1.26545,-2.3821 0.43611,-0.56887 0.73071,-1.24431 1.25625,-1.74935 0.58802,-0.53896 1.0279,-1.22654 1.56861,-1.81214 0.80863,-0.57779 1.52048,-1.28767 2.44578,-1.68345 0.9011,-0.65284 1.77253,-1.34049 2.66324,-2.00769 0,0 7.66875,0.67355 7.66875,0.67355 z"
     inkscape:connector-curvature="0" />
  <path
     style="fill:#000000;fill-rule:evenodd;stroke:none"
     d="m 866.20581,635.58339 c 0.0877,0.24268 -0.31878,0.66774 -1.2223,1.22121 -0.90351,0.55346 -2.3063,1.23431 -4.21911,1.9021 -1.91281,0.66778 -4.33861,1.32145 -7.25633,1.74937 -2.91773,0.42792 -6.33039,0.62897 -10.1396,0.33658 -3.51559,-0.27592 -7.33918,-0.95868 -11.33521,-2.16995 -3.99603,-1.21128 -8.16477,-2.95279 -12.31268,-5.27228 -3.70766,-2.07087 -7.4109,-4.57568 -11.01629,-7.50708 -3.6054,-2.93139 -7.1127,-6.28958 -10.43068,-10.01758 -6.58525,-7.38865 -12.49791,-16.24164 -17.33304,-26.12481 -4.54969,-9.31253 -8.20027,-19.50177 -10.77676,-30.25863 -3.49171,-14.57789 -4.76223,-29.07536 -4.57701,-42.51276 0,0 0,-1e-5 0,-1e-5 0.1851,-13.77065 1.85617,-26.46699 4.18252,-37.63321 2.32635,-11.16622 5.2997,-20.80566 8.17878,-28.63191 2.87909,-7.82626 5.65898,-13.8468 7.78535,-17.86175 2.12637,-4.01495 3.59444,-6.03296 4.10483,-5.81579 0.51039,0.21717 0.0264,2.65132 -1.15116,6.98473 -1.17757,4.33342 -3.04348,10.57472 -5.073,18.46268 -2.02952,7.88797 -4.21859,17.42869 -5.88323,28.30364 -1.66464,10.87495 -2.79828,23.08542 -2.63511,36.19936 0,10e-6 0,10e-6 0,10e-6 0.16384,12.79916 1.52765,26.48727 4.78965,40.1828 2.40699,10.10576 5.72398,19.64421 9.82735,28.37362 4.34559,9.25896 9.53461,17.55511 15.30494,24.5312 2.911,3.51388 5.95378,6.70527 9.07055,9.52084 3.11676,2.81557 6.30749,5.25555 9.51063,7.31409 3.57318,2.2941 7.15783,4.12354 10.61208,5.50492 3.45426,1.38138 6.77877,2.31617 9.87468,2.89767 3.33784,0.63448 6.41483,0.85714 9.11326,0.88234 2.69842,0.0252 5.02123,-0.14608 6.91855,-0.33049 1.89732,-0.18441 3.37207,-0.38065 4.39736,-0.45337 1.0253,-0.0727 1.60331,-0.0202 1.69098,0.22246 z"
     id="path3880"
     inkscape:path-effect="#path-effect3882"
     inkscape:original-d="M 866.20581,635.58339 C 807.17335,656.90918 735.01642,555.82696 789.83828,426.98689"
     inkscape:connector-curvature="0"
     sodipodi:nodetypes="cc" />
  <path
     style="fill:#000000;fill-rule:evenodd;stroke:none"
     d="m 792.31315,425.21912 c 0.0329,-0.35921 1.13223,-0.62449 3.20854,-0.72298 2.07631,-0.0985 5.13187,-0.0276 9.03821,0.41072 3.90634,0.43836 8.66645,1.24664 14.07167,2.71126 5.40522,1.46461 11.45779,3.58804 17.82853,6.70847 10e-6,0 10e-6,0 10e-6,10e-6 5.47573,2.6906 11.14756,6.11008 16.75601,10.33905 5.60845,4.22896 11.15266,9.26847 16.34022,15.10001 4.30341,4.83989 8.36816,10.19528 12.09714,15.99887 3.72897,5.80358 7.12198,12.05502 10.10546,18.64343 2.09495,4.62161 3.9986,9.40926 5.69403,14.33259 2.81593,8.17716 4.94128,16.38993 6.47811,24.44887 2.55048,13.34532 3.49691,26.31888 3.17308,38.29364 -0.16102,6.15081 -0.65489,12.07285 -1.47403,17.65884 -0.81914,5.58599 -1.96305,10.83589 -3.36713,15.67652 -1.42615,4.91728 -3.16456,9.43215 -5.14901,13.41181 -2.02731,4.07847 -4.37154,7.61677 -6.85311,10.44857 -1.37308,1.57366 -2.81096,2.92926 -4.24242,4.04741 -1.43146,1.11816 -2.85625,2.00005 -4.20983,2.67062 0,0 0,0 0,0 -1.45369,0.71725 -2.81742,1.16933 -4.01349,1.44684 -1.19607,0.27751 -2.22574,0.38157 -3.05467,0.39379 -1.65785,0.0245 -2.5038,-0.27954 -2.52425,-0.59341 -0.0204,-0.31387 0.77554,-0.63126 2.16659,-1.21111 1.39104,-0.57985 3.40361,-1.45976 5.58021,-3.09386 0,0 10e-6,0 10e-6,-10e-6 1.02881,-0.76739 2.09197,-1.70368 3.15411,-2.83255 1.06213,-1.12887 2.12302,-2.45149 3.15665,-3.95058 1.86449,-2.71702 3.5786,-6.03952 5.10496,-9.89467 1.48342,-3.7624 2.74453,-8.00664 3.77538,-12.6666 1.01715,-4.59713 1.80094,-9.56114 2.30551,-14.84753 0.50456,-5.28638 0.72957,-10.8954 0.68621,-16.75187 -0.095,-11.37902 -1.29287,-23.65293 -3.87346,-36.2991 -1.56069,-7.63161 -3.61987,-15.38802 -6.27387,-23.10109 -1.59793,-4.64391 -3.372,-9.15649 -5.3098,-13.51299 -2.76212,-6.20298 -5.8536,-12.08971 -9.22276,-17.56484 -3.36916,-5.47513 -7.016,-10.53839 -10.86955,-15.13604 -4.63098,-5.52841 -9.57007,-10.38436 -14.57464,-14.54318 -5.00458,-4.15882 -10.07437,-7.62125 -14.99297,-10.45341 0,0 0,0 -1e-5,0 -5.71212,-3.29949 -11.21856,-5.75233 -16.18465,-7.64531 -4.96609,-1.89297 -9.3939,-3.22789 -13.05287,-4.24949 -3.65898,-1.0216 -6.55199,-1.73218 -8.51443,-2.30387 -1.96244,-0.57168 -2.99657,-1.00762 -2.96369,-1.36683 z"
     id="path3884"
     inkscape:path-effect="#path-effect3886"
     inkscape:original-d="m 792.31315,425.21912 c 128.76259,11.78656 129.37261,208.2016 79.90307,211.42493"
     inkscape:connector-curvature="0"
     sodipodi:nodetypes="cc" />
  <path
     style="fill:#000000"
     id="path3936"
     d="m 837.08651,529.24282 c -0.54988,1.49466 -0.75041,3.0765 -0.8957,4.65267 -0.14042,1.66236 -0.16553,3.32615 -0.0356,4.98847 0.1314,1.63566 0.53587,3.20075 1.11995,4.72733 0.59323,1.46954 1.39199,2.86064 2.39344,4.0896 0.27762,0.31135 0.64829,0.48595 0.98149,0.72566 0,0 -7.65724,0.70986 -7.65724,0.70986 l 0,0 c -0.35252,-0.27894 -0.68876,-0.5706 -0.94377,-0.94727 -0.91972,-1.34998 -1.73844,-2.77715 -2.32642,-4.30485 -0.59788,-1.60116 -1.02805,-3.23475 -1.1595,-4.94642 -0.10958,-1.70478 -0.0719,-3.40958 0.0627,-5.11287 0.152,-1.60543 0.35104,-3.2092 0.76919,-4.77064 0,0 7.6915,0.18846 7.6915,0.18846 z"
     inkscape:connector-curvature="0" />
  <path
     style="fill:#000000;fill-rule:evenodd;stroke:none"
     d="m 797.5,546 c 0.79715,-0.56631 3.01566,1.02701 6.27197,4.09796 3.25631,3.07094 7.53503,7.62723 12.78889,12.62739 4.33284,4.10394 9.26569,8.53754 14.97412,12.095 0.50478,0.31458 1.01094,0.61908 1.51848,0.91317 2.89077,1.67635 5.84226,3.02347 8.73121,3.99885 2.88895,0.97539 5.71525,1.57815 8.39232,1.8418 3.06038,0.34289 5.96272,0.25507 8.58295,0.0198 2.62023,-0.23523 4.95831,-0.61788 6.92491,-0.94003 1.9666,-0.32215 3.56346,-0.58465 4.72285,-0.64719 1.15939,-0.0625 1.88429,0.0749 2.0923,0.49321 0.20801,0.4183 -0.11462,1.09267 -0.95596,1.95773 -0.84134,0.86506 -2.20364,1.92147 -4.09484,3.01254 -1.8912,1.09108 -4.31434,2.21711 -7.25606,3.12108 -2.94172,0.90398 -6.40469,1.58443 -10.31036,1.69199 -3.43811,0.0571 -7.11074,-0.36481 -10.82162,-1.34111 -3.71089,-0.9763 -7.45801,-2.50747 -11.01252,-4.56149 -0.61026,-0.35287 -1.21546,-0.71813 -1.81515,-1.09526 -3.39092,-2.13243 -6.41769,-4.52493 -9.10601,-6.98963 -2.68833,-2.46471 -5.03938,-5.00058 -7.09496,-7.45733 -5.0116,-5.96249 -8.44638,-11.48161 -10.52635,-15.55381 -2.07996,-4.0722 -2.80332,-6.7184 -2.00617,-7.28471 z"
     id="path3946"
     inkscape:path-effect="#path-effect3948"
     inkscape:original-d="m 797.5,546 c 20.43128,28.7596 42.70486,50.55941 75,34.5"
     inkscape:connector-curvature="0"
     sodipodi:nodetypes="cc" />
  <path
     style="fill:#000000;fill-opacity:1;fill-rule:evenodd;stroke:none"
     d="m 798.21532,465.369 c 0.8061,-0.52704 2.33666,0.13212 4.28325,1.8371 1.94659,1.70497 4.32709,4.46392 6.50909,8.31931 1.83709,3.24878 3.43925,7.3377 4.09198,12.01396 0.0224,0.16965 0.0435,0.33965 0.0633,0.50994 0.52942,4.55494 0.0667,8.81028 -0.81941,12.37521 -1.11442,4.4838 -2.74603,7.94018 -4.2335,10.21023 -1.48746,2.27005 -2.84457,3.36828 -3.7845,3.05849 -0.93993,-0.30979 -1.33757,-1.99725 -1.37291,-4.59653 -0.0353,-2.59928 0.30291,-6.09964 0.49434,-10.04969 0.14394,-3.08789 0.20489,-6.44742 -0.21023,-9.81417 -0.0155,-0.12587 -0.0317,-0.25126 -0.0484,-0.37617 -0.42656,-3.44427 -1.35001,-6.74436 -2.28408,-9.72845 -1.13504,-3.60527 -2.29348,-6.75596 -2.88108,-9.16597 -0.58759,-2.41002 -0.61392,-4.06622 0.19218,-4.59326 z"
     id="path3950"
     inkscape:path-effect="#path-effect3952"
     inkscape:original-d="m 798.21532,465.369 c 11.40735,17.44736 13.03232,27.32195 6.11019,48.32424"
     inkscape:connector-curvature="0"
     sodipodi:nodetypes="cc" />
  <path
     style="fill:#000000;fill-opacity:1;fill-rule:evenodd;stroke:none"
     d="m 838.72441,465.90076 c 0.8061,-0.52704 2.33666,0.13212 4.28325,1.8371 1.94659,1.70497 4.32709,4.46392 6.50909,8.31931 1.83709,3.24878 3.43925,7.3377 4.09198,12.01396 0.0224,0.16965 0.0435,0.33965 0.0633,0.50994 0.52942,4.55494 0.0667,8.81028 -0.81941,12.37521 -1.11442,4.4838 -2.74603,7.94018 -4.2335,10.21023 -1.48746,2.27005 -2.84457,3.36828 -3.7845,3.05849 -0.93993,-0.30979 -1.33757,-1.99725 -1.37291,-4.59653 -0.0353,-2.59928 0.30291,-6.09964 0.49434,-10.04969 0.14394,-3.08789 0.20489,-6.44742 -0.21023,-9.81417 -0.0155,-0.12587 -0.0317,-0.25126 -0.0484,-0.37617 -0.42656,-3.44427 -1.35001,-6.74436 -2.28408,-9.72845 -1.13504,-3.60527 -2.29348,-6.75596 -2.88108,-9.16597 -0.58759,-2.41002 -0.61392,-4.06622 0.19218,-4.59326 0,0 0,0 0,0 z"
     id="path3950-8"
     inkscape:path-effect="#path-effect3952-6"
     inkscape:original-d="m 838.72441,465.90076 c 11.40735,17.44736 13.03232,27.32195 6.11019,48.32424"
     inkscape:connector-curvature="0"
     sodipodi:nodetypes="cc" />
</svg>
